<svg width="122" height="24" viewBox="0 0 122 24" fill="none" xmlns="http://www.w3.org/2000/svg">
<g clip-path="url(#clip0_45_216)">
<path fill-rule="evenodd" clip-rule="evenodd" d="M13.1583 11.2087C13.4527 11.1454 13.5621 11.1863 13.586 11.1978C13.5959 11.2183 13.6182 11.2857 13.6027 11.4445C13.5803 11.6752 13.4834 12.0015 13.2857 12.41C12.8933 13.221 12.1695 14.221 11.1953 15.1953C10.221 16.1695 9.22107 16.8933 8.41003 17.2857C8.00153 17.4834 7.67517 17.5802 7.44453 17.6027C7.2857 17.6182 7.21837 17.5958 7.1978 17.586C7.1863 17.5621 7.14543 17.4527 7.20873 17.1583C7.2854 16.8018 7.48963 16.3219 7.8346 15.7606C8.2525 15.0806 8.8499 14.3248 9.58737 13.5873C10.3248 12.8499 11.0806 12.2525 11.7606 11.8346C12.3219 11.4896 12.8018 11.2854 13.1583 11.2087V11.2087ZM1.47063 13.7468L6.25323 18.5294C6.6271 18.9032 7.13423 18.9726 7.5739 18.9298C8.0195 18.8863 8.50493 18.721 8.99077 18.486C9.9684 18.0129 11.0873 17.1889 12.1381 16.1381C13.1889 15.0873 14.0129 13.9684 14.486 12.9908C14.721 12.5049 14.8863 12.0195 14.9298 11.5739C14.9726 11.1342 14.9032 10.6271 14.5294 10.2532L9.74677 5.47062C9.28423 5.00809 8.6255 5.00858 8.09537 5.12259C7.53603 5.24288 6.91113 5.52806 6.27987 5.916C5.49927 6.39572 4.6627 7.06118 3.86193 7.86193C3.06118 8.66267 2.39572 9.49927 1.91601 10.2799C1.52807 10.9111 1.24288 11.536 1.12259 12.0954C1.00858 12.6255 1.0081 13.2842 1.47063 13.7468V13.7468Z" fill="#121417"/>
</g>
<path d="M38.759 5.306C39.737 5.306 40.607 5.504 41.369 5.9C42.137 6.29 42.755 6.824 43.223 7.502C43.697 8.18 43.976 8.945 44.06 9.797H41.306C41.222 9.347 41.069 8.948 40.847 8.6C40.625 8.246 40.334 7.97 39.974 7.772C39.614 7.568 39.182 7.466 38.678 7.466C38.072 7.466 37.55 7.613 37.112 7.907C36.674 8.201 36.338 8.675 36.104 9.329C35.87 9.983 35.753 10.847 35.753 11.921C35.753 13.541 36.011 14.714 36.527 15.44C37.049 16.16 37.766 16.52 38.678 16.52C39.182 16.52 39.614 16.406 39.974 16.178C40.334 15.944 40.625 15.638 40.847 15.26C41.069 14.876 41.222 14.456 41.306 14H44.06C43.982 14.618 43.832 15.209 43.61 15.773C43.388 16.331 43.073 16.829 42.665 17.267C42.257 17.705 41.732 18.05 41.09 18.302C40.448 18.554 39.671 18.68 38.759 18.68C37.547 18.68 36.5 18.398 35.618 17.834C34.736 17.27 34.055 16.478 33.575 15.458C33.101 14.438 32.864 13.247 32.864 11.885C32.864 10.517 33.101 9.344 33.575 8.366C34.049 7.382 34.727 6.626 35.609 6.098C36.491 5.57 37.541 5.306 38.759 5.306ZM50.0761 18.68C49.1641 18.68 48.3691 18.485 47.6911 18.095C47.0191 17.705 46.4971 17.153 46.1251 16.439C45.7591 15.725 45.5761 14.879 45.5761 13.901C45.5761 12.923 45.7591 12.068 46.1251 11.336C46.4971 10.604 47.0191 10.034 47.6911 9.626C48.3691 9.218 49.1671 9.014 50.0851 9.014C51.0031 9.014 51.7981 9.215 52.4701 9.617C53.1421 10.013 53.6611 10.577 54.0271 11.309C54.3931 12.041 54.5761 12.905 54.5761 13.901C54.5761 14.837 54.3961 15.665 54.0361 16.385C53.6821 17.099 53.1691 17.66 52.4971 18.068C51.8311 18.476 51.0241 18.68 50.0761 18.68ZM50.0851 16.727C50.5471 16.727 50.9191 16.592 51.2011 16.322C51.4831 16.052 51.6871 15.698 51.8131 15.26C51.9451 14.816 52.0111 14.333 52.0111 13.811C52.0111 13.319 51.9511 12.854 51.8311 12.416C51.7171 11.978 51.5191 11.624 51.2371 11.354C50.9551 11.084 50.5711 10.949 50.0851 10.949C49.6231 10.949 49.2481 11.078 48.9601 11.336C48.6781 11.588 48.4711 11.933 48.3391 12.371C48.2071 12.803 48.1411 13.283 48.1411 13.811C48.1411 14.297 48.2011 14.765 48.3211 15.215C48.4411 15.659 48.6421 16.022 48.9241 16.304C49.2061 16.586 49.5931 16.727 50.0851 16.727ZM56.3281 18.5V9.194H58.9111V10.508C59.0551 10.28 59.2411 10.061 59.4691 9.851C59.7031 9.635 59.9971 9.458 60.3511 9.32C60.7051 9.182 61.1251 9.113 61.6111 9.113C62.1811 9.113 62.7121 9.224 63.2041 9.446C63.7021 9.668 64.1041 10.019 64.4101 10.499C64.7161 10.973 64.8691 11.594 64.8691 12.362V18.5H62.2411V12.686C62.2411 12.182 62.0911 11.804 61.7911 11.552C61.4911 11.3 61.1251 11.174 60.6931 11.174C60.4051 11.174 60.1261 11.225 59.8561 11.327C59.5921 11.429 59.3761 11.582 59.2081 11.786C59.0401 11.99 58.9561 12.242 58.9561 12.542V18.5H56.3281ZM70.5736 18.68C69.9256 18.68 69.3016 18.575 68.7016 18.365C68.1016 18.149 67.5946 17.813 67.1806 17.357C66.7666 16.895 66.5026 16.298 66.3886 15.566H68.6656C68.7436 15.896 68.8846 16.157 69.0886 16.349C69.2986 16.541 69.5356 16.679 69.7996 16.763C70.0636 16.841 70.3156 16.88 70.5556 16.88C71.0596 16.88 71.4646 16.802 71.7706 16.646C72.0826 16.484 72.2386 16.238 72.2386 15.908C72.2386 15.656 72.1456 15.455 71.9596 15.305C71.7796 15.155 71.4796 15.041 71.0596 14.963L69.4216 14.621C68.5996 14.447 67.9396 14.153 67.4416 13.739C66.9436 13.319 66.6886 12.725 66.6766 11.957C66.6766 11.399 66.8236 10.898 67.1176 10.454C67.4176 10.01 67.8586 9.659 68.4406 9.401C69.0226 9.143 69.7366 9.014 70.5826 9.014C71.7286 9.014 72.6436 9.266 73.3276 9.77C74.0176 10.274 74.3686 10.985 74.3806 11.903H72.1846C72.1186 11.543 71.9386 11.267 71.6446 11.075C71.3566 10.877 70.9936 10.778 70.5556 10.778C70.0996 10.778 69.7246 10.859 69.4306 11.021C69.1366 11.183 68.9896 11.429 68.9896 11.759C68.9896 12.005 69.1096 12.2 69.3496 12.344C69.5896 12.482 69.9616 12.602 70.4656 12.704L71.9776 13.046C72.4996 13.172 72.9226 13.346 73.2466 13.568C73.5766 13.784 73.8316 14.021 74.0116 14.279C74.1916 14.537 74.3146 14.798 74.3806 15.062C74.4526 15.32 74.4886 15.554 74.4886 15.764C74.4886 16.382 74.3236 16.91 73.9936 17.348C73.6636 17.78 73.2046 18.11 72.6166 18.338C72.0286 18.566 71.3476 18.68 70.5736 18.68ZM79.761 18.68C79.329 18.68 78.903 18.614 78.483 18.482C78.069 18.35 77.691 18.155 77.349 17.897C77.007 17.639 76.731 17.321 76.521 16.943C76.317 16.565 76.215 16.127 76.215 15.629V9.194H78.843V15.296C78.843 15.728 78.984 16.082 79.266 16.358C79.548 16.634 79.962 16.772 80.508 16.772C81.024 16.772 81.432 16.64 81.732 16.376C82.038 16.106 82.191 15.731 82.191 15.251V9.194H84.792V18.5H82.812L82.506 16.655C82.398 17.201 82.194 17.621 81.894 17.915C81.6 18.203 81.261 18.401 80.877 18.509C80.499 18.623 80.127 18.68 79.761 18.68ZM89.9544 18.662C89.2704 18.662 88.7274 18.581 88.3254 18.419C87.9234 18.257 87.6264 18.044 87.4344 17.78C87.2424 17.51 87.1194 17.213 87.0654 16.889C87.0114 16.559 86.9844 16.226 86.9844 15.89V5.126H89.5584V15.566C89.5584 15.908 89.6304 16.187 89.7744 16.403C89.9244 16.613 90.2034 16.742 90.6114 16.79L91.0524 16.817V18.437C90.8724 18.497 90.6894 18.548 90.5034 18.59C90.3174 18.638 90.1344 18.662 89.9544 18.662ZM97.9805 11.021H95.9105L95.9285 15.98C95.9285 16.208 95.9555 16.379 96.0095 16.493C96.0695 16.601 96.1595 16.673 96.2795 16.709C96.4055 16.739 96.5645 16.754 96.7565 16.754H98.0075V18.374C97.8875 18.428 97.6985 18.479 97.4405 18.527C97.1885 18.575 96.8345 18.599 96.3785 18.599C95.5625 18.599 94.9295 18.494 94.4795 18.284C94.0355 18.074 93.7265 17.78 93.5525 17.402C93.3785 17.024 93.2915 16.586 93.2915 16.088V11.021H91.7795V9.194H93.3815L94.0385 6.386H95.9105V9.185H97.9805V11.021ZM102.568 9.194V18.5H100.057V9.194H102.568ZM102.595 5.495V7.862H100.039V5.495H102.595ZM110.628 9.194V11.021H108.666V18.5H106.038V11.021H104.319V9.194H106.038V7.853C106.038 7.103 106.257 6.521 106.695 6.107C107.139 5.693 107.766 5.486 108.576 5.486H110.709L110.718 7.232H109.494C109.158 7.232 108.927 7.316 108.801 7.484C108.681 7.646 108.621 7.916 108.621 8.294V9.194H110.628ZM113.957 21.47C113.321 21.47 112.871 21.416 112.607 21.308C112.349 21.206 112.22 21.155 112.22 21.155V19.481L113.138 19.517C113.54 19.541 113.864 19.52 114.11 19.454C114.356 19.394 114.542 19.313 114.668 19.211C114.8 19.109 114.893 19.001 114.947 18.887C115.001 18.779 115.04 18.692 115.064 18.626L115.235 18.113L111.617 9.194H114.218L116.45 15.26L118.709 9.194H121.274L117.503 18.554C117.179 19.346 116.837 19.952 116.477 20.372C116.117 20.792 115.727 21.08 115.307 21.236C114.893 21.392 114.443 21.47 113.957 21.47Z" fill="#121417"/>
<defs>
<clipPath id="clip0_45_216">
<rect width="16" height="16" fill="white" transform="translate(0 4)"/>
</clipPath>
</defs>
</svg>
